<svg role="img" viewBox="0 0 24 24" xmlns="http://www.w3.org/2000/svg"><title>React</title><path d="M12 2.25c-5.385 0-9.75 4.365-9.75 9.75s4.365 9.75 9.75 9.75 9.75-4.365 9.75-9.75-4.365-9.75-9.75-9.75zm0 1.5c4.557 0 8.25 3.693 8.25 8.25s-3.693 8.25-8.25 8.25-8.25-3.693-8.25-8.25 3.693-8.25 8.25-8.25zm0 2.25c-3.314 0-6 2.686-6 6s2.686 6 6 6 6-2.686 6-6-2.686-6-6-6zm0 1.5c2.485 0 4.5 2.015 4.5 4.5s-2.015 4.5-4.5 4.5-4.5-2.015-4.5-4.5 2.015-4.5 4.5-4.5zm0 2.25c-1.657 0-3 1.343-3 3s1.343 3 3 3 3-1.343 3-3-1.343-3-3-3z" fill="#61DAFB"/></svg>