<svg role="img" viewBox="0 0 24 24" xmlns="http://www.w3.org/2000/svg"><title>TypeScript</title><path d="M1.125 0C.502 0 0 .502 0 1.125v21.75C0 23.498.502 24 1.125 24h21.75c.623 0 1.125-.502 1.125-1.125V1.125C24 .502 23.498 0 22.875 0zm17.363 9.75c.612 0 1.154.037 1.627.112.473.074.873.227 1.2.457.328.23.578.555.75.975.172.42.258.97.258 1.65v8.1c0 .68-.086 1.23-.258 1.65-.172.42-.422.745-.75.975-.327.23-.727.382-1.2.457-.473.075-1.015.112-1.627.112h-1.387c-.612 0-1.154-.037-1.627-.112-.473-.075-.873-.227-1.2-.457-.328-.23-.578-.555-.75-.975-.172-.42-.258-.97-.258-1.65v-1.05h2.55v1.05c0 .28.035.47.105.57.07.1.202.15.398.15h1.387c.196 0 .328-.05.398-.15.07-.1.105-.29.105-.57v-8.1c0-.28-.035-.47-.105-.57-.07-.1-.202-.15-.398-.15h-1.387c-.196 0-.328.05-.398.15-.07.1-.105.29-.105.57v1.05h-2.55v-1.05c0-.68.086-1.23.258-1.65.172-.42.422-.745.75-.975.327-.23.727-.382 1.2-.457.473-.075 1.015-.112 1.627-.112zm-8.1 0c.612 0 1.154.037 1.627.112.473.074.873.227 1.2.457.328.23.578.555.75.975.172.42.258.97.258 1.65v8.1c0 .68-.086 1.23-.258 1.65-.172.42-.422.745-.75.975-.327.23-.727.382-1.2.457-.473.075-1.015.112-1.627.112h-1.387c-.612 0-1.154-.037-1.627-.112-.473-.075-.873-.227-1.2-.457-.328-.23-.578-.555-.75-.975-.172-.42-.258-.97-.258-1.65v-8.1c0-.68.086-1.23.258-1.65.172-.42.422-.745.75-.975.327-.23.727-.382 1.2-.457.473-.075 1.015-.112 1.627-.112zm0 2.25h-1.387c-.196 0-.328.05-.398.15-.07.1-.105.29-.105.57v8.1c0 .28.035.47.105.57.07.1.202.15.398.15h1.387c.196 0 .328-.05.398-.15.07-.1.105-.29.105-.57v-8.1c0-.28-.035-.47-.105-.57-.07-.1-.202-.15-.398-.15z" fill="#3178C6"/></svg>