<svg width="1200" height="630" viewBox="0 0 1200 630" fill="none" xmlns="http://www.w3.org/2000/svg">
  <!-- Background -->
  <rect width="1200" height="630" fill="#0E0E0E"/>
  
  <!-- Header -->
  <rect x="50" y="50" width="1100" height="80" rx="8" fill="#1A1A1A"/>
  <rect x="70" y="75" width="120" height="30" rx="4" fill="#6C63FF"/>
  <rect x="800" y="75" width="60" height="30" rx="4" fill="#333333"/>
  <rect x="880" y="75" width="60" height="30" rx="4" fill="#333333"/>
  <rect x="960" y="75" width="60" height="30" rx="4" fill="#333333"/>
  <rect x="1040" y="75" width="80" height="30" rx="15" fill="url(#paint0_linear)"/>
  
  <!-- Hero Section -->
  <rect x="50" y="180" width="500" height="200" rx="8" fill="#1A1A1A"/>
  <rect x="70" y="200" width="300" height="40" rx="4" fill="#FFFFFF"/>
  <rect x="70" y="260" width="460" height="20" rx="4" fill="#BFBFBF"/>
  <rect x="70" y="290" width="460" height="20" rx="4" fill="#BFBFBF"/>
  <rect x="70" y="320" width="460" height="20" rx="4" fill="#BFBFBF"/>
  
  <!-- Profile Image -->
  <circle cx="850" cy="280" r="150" fill="url(#paint1_linear)" stroke="#6C63FF" stroke-width="8"/>
  
  <!-- About Section -->
  <rect x="50" y="430" width="1100" height="150" rx="8" fill="#1A1A1A"/>
  <rect x="70" y="450" width="200" height="30" rx="4" fill="#FFFFFF"/>
  <rect x="70" y="490" width="1060" height="15" rx="4" fill="#BFBFBF"/>
  <rect x="70" y="515" width="1060" height="15" rx="4" fill="#BFBFBF"/>
  <rect x="70" y="540" width="1060" height="15" rx="4" fill="#BFBFBF"/>
  
  <!-- Gradients -->
  <defs>
    <linearGradient id="paint0_linear" x1="1040" y1="75" x2="1120" y2="105" gradientUnits="userSpaceOnUse">
      <stop stop-color="#6C63FF"/>
      <stop offset="1" stop-color="#A259FF"/>
    </linearGradient>
    <linearGradient id="paint1_linear" x1="700" y1="130" x2="1000" y2="430" gradientUnits="userSpaceOnUse">
      <stop stop-color="#6C63FF"/>
      <stop offset="1" stop-color="#A259FF"/>
    </linearGradient>
  </defs>
</svg>